HIERARCHY
ROOT root
{
	OFFSET	0	13.1	24.9
	CHANNELS 6  Xposition Yposition Zposition Xrotation Yrotation Zrotation
	JOINT spine_1
	{
		OFFSET	0	9.99999	0
		CHANNELS 3  Xrotation Yrotation Zrotation
		JOINT spine_2
		{
			OFFSET	0	112	-10
			CHANNELS 3  Xrotation Yrotation Zrotation
			JOINT spine_3
			{
				OFFSET	0	206.5	19.3
				CHANNELS 3  Xrotation Yrotation Zrotation
				JOINT spine_4
				{
					OFFSET	0	110.4	14.6
					CHANNELS 3  Xrotation Yrotation Zrotation
					JOINT neck_1
					{
						OFFSET	0	71.8	-50.3
						CHANNELS 3  Xrotation Yrotation Zrotation
						JOINT neck_2
						{
							OFFSET	0	86.2	-25.8
							CHANNELS 3  Xrotation Yrotation Zrotation
							JOINT head_ee
							{
								OFFSET	0	179.8	-8.7
								CHANNELS 3  Xrotation Yrotation Zrotation
								End Site
								{
									OFFSET	1	0	0
								}
							}
						}
					}
					JOINT left_clavicle
					{
						OFFSET	-43.2	22.4	-70.8
						CHANNELS 3  Xrotation Yrotation Zrotation
						JOINT left_shoulder
						{
							OFFSET	-93.9	-5.79999	48.7
							CHANNELS 3  Xrotation Yrotation Zrotation
							JOINT left_elbow
							{
								OFFSET	-291.4	-30.8	15.2
								CHANNELS 3  Xrotation Yrotation Zrotation
								JOINT left_lowarm_twist
								{
									OFFSET	-110.7	-3.89999	13.6
									CHANNELS 3  Xrotation Yrotation Zrotation
									JOINT left_hand
									{
										OFFSET	-110.7	-3.89999	13.6
										CHANNELS 3  Xrotation Yrotation Zrotation
										JOINT left_ee
										{
											OFFSET	-80.8	-5.10001	12.1
											CHANNELS 3  Xrotation Yrotation Zrotation
											End Site
											{
												OFFSET	1	0	0
											}
										}
									}
								}
							}
						}
					}
					JOINT right_clavicle
					{
						OFFSET	43.2	22.4	-70.8
						CHANNELS 3  Xrotation Yrotation Zrotation
						JOINT right_shoulder
						{
							OFFSET	93.9	-5.79999	48.7
							CHANNELS 3  Xrotation Yrotation Zrotation
							JOINT right_elbow
							{
								OFFSET	291.4	-30.8	15.2
								CHANNELS 3  Xrotation Yrotation Zrotation
								JOINT right_lowarm_twist
								{
									OFFSET	110.7	-3.89999	13.6
									CHANNELS 3  Xrotation Yrotation Zrotation
									JOINT right_hand
									{
										OFFSET	110.7	-3.89999	13.6
										CHANNELS 3  Xrotation Yrotation Zrotation
										JOINT right_ee
										{
											OFFSET	80.8	-5.10001	12.1
											CHANNELS 3  Xrotation Yrotation Zrotation
											End Site
											{
												OFFSET	1	0	0
											}
										}
									}
								}
							}
						}
					}
				}
			}
		}
	}
	JOINT left_hip
	{
		OFFSET	-82.8	-127.5	0.300001
		CHANNELS 3  Xrotation Yrotation Zrotation
		JOINT left_knee
		{
			OFFSET	-28.2	-396.7	2.2
			CHANNELS 3  Xrotation Yrotation Zrotation
			JOINT left_ankle
			{
				OFFSET	-11.7	-411.3	35.4
				CHANNELS 3  Xrotation Yrotation Zrotation
				JOINT left_toes
				{
					OFFSET	0	-60	-88.6
					CHANNELS 3  Xrotation Yrotation Zrotation
					JOINT left_foot_ee
					{
						OFFSET	-22.5	-16.5	-42.2
						CHANNELS 3  Xrotation Yrotation Zrotation
						End Site
						{
							OFFSET	1	0	0
						}
					}
				}
			}
		}
	}
	JOINT right_hip
	{
		OFFSET	82.8	-127.5	0.300001
		CHANNELS 3  Xrotation Yrotation Zrotation
		JOINT right_knee
		{
			OFFSET	28.2	-396.7	2.2
			CHANNELS 3  Xrotation Yrotation Zrotation
			JOINT right_ankle
			{
				OFFSET	11.7	-411.3	35.4
				CHANNELS 3  Xrotation Yrotation Zrotation
				JOINT right_toes
				{
					OFFSET	0	-60	-88.6
					CHANNELS 3  Xrotation Yrotation Zrotation
					JOINT right_foot_ee
					{
						OFFSET	22.5	-16.5	-42.2
						CHANNELS 3  Xrotation Yrotation Zrotation
						End Site
						{
							OFFSET	1	0	0
						}
					}
				}
			}
		}
	}
}
MOTION
Frames: 5
Frame Time: 0.02
2847.90579493 707.961 -1600.37108955 0.0576771212509 50.6208490407 -2.39335437134 1.87464 0.3677 1.62006 1.87607 0.26388 1.64016 1.88369 -0.0321297 1.66094 1.87992 0.230552 1.64518 -9.03026 18.3962 3.6802 -9.2593 32.059 8.06092 -0.0 0.0 -0.0 1.49601 12.5963 3.97288 -9.12701 -27.7015 45.2398 1.19414 -30.605 0.326747 -50.3472 -4.11253 4.70094 -1.26288 23.3344 2.02709 -0.0 0.0 -0.0 10.8213 26.7374 -20.626 -11.1619 18.7804 -66.115 0.492185 13.7024 -0.0591359 -18.0983 0.976305 -2.08853 2.21277 -0.0295861 -14.967 0.0 0.0 0.0 -4.75703 0.0298448 10.8616 5.14702 -0.245909 -0.75111 40.2284 24.1318 -5.1621 -28.2679 0.0 0.0 -0.0 0.0 -0.0 27.3821 25.1325 -3.73939 -55.9289 1.77679 -8.06188 28.7147 -24.7233 3.951 -30.2329 0.0 0.0 0.0 0.0 0.0 
2832.28628335 703.729 -1588.78409959 1.04995532001 52.8198437395 -3.70159098049 1.7723 0.52439 1.51894 1.77348 0.426685 1.54922 1.7852 0.141571 1.60065 1.78184 0.392556 1.55822 -8.33464 19.4755 4.63382 -8.47719 33.2976 9.04076 -0.0 0.0 -0.0 1.50741 12.7327 4.00266 -6.30112 -28.142 43.9346 1.3147 -33.0731 0.390358 -51.7772 -4.28145 4.77261 -1.91231 25.6317 -0.593594 -0.0 0.0 -0.0 10.6835 27.1059 -20.2738 -12.8122 17.9566 -66.6692 0.290738 8.19574 -0.0208295 -18.4597 1.00237 -2.12677 2.03209 0.339896 -13.5719 0.0 0.0 0.0 -7.04549 0.0363542 11.3689 7.98202 -0.409943 -1.1547 39.4401 25.5428 -5.13153 -29.5943 0.0 0.0 -0.0 0.0 -0.0 27.6167 25.4012 -3.92185 -55.0051 1.68544 -7.95263 26.4569 -20.9805 3.61173 -31.0924 0.0 0.0 0.0 0.0 0.0 
2834.54872196 703.729 -1579.64648869 1.0884946494 54.3431870703 -3.74947940192 1.7723 0.52439 1.51894 1.77348 0.426685 1.54922 1.7852 0.141571 1.60065 1.78184 0.392556 1.55822 -8.33464 19.4755 4.63382 -8.47719 33.2976 9.04076 -0.0 0.0 -0.0 1.50741 12.7327 4.00266 -6.30112 -28.142 43.9346 1.3147 -33.0731 0.390358 -51.7772 -4.28145 4.77261 -1.91231 25.6317 -0.593594 -0.0 0.0 -0.0 10.6835 27.1059 -20.2738 -12.8122 17.9566 -66.6692 0.290738 8.19574 -0.0208295 -18.4597 1.00237 -2.12677 2.03209 0.339896 -13.5719 0.0 0.0 0.0 -7.04549 0.0363542 11.3689 7.98202 -0.409943 -1.1547 39.4401 25.5428 -5.13153 -29.5943 0.0 0.0 -0.0 0.0 -0.0 27.6167 25.4012 -3.92185 -55.0051 1.68544 -7.95263 26.4569 -20.9805 3.61173 -31.0924 0.0 0.0 0.0 0.0 0.0 
2822.91106895 703.127 -1573.25522792 1.56163608683 56.2824184893 -4.05222323667 1.65737 0.428339 1.59222 1.65872 0.326168 1.61625 1.66812 0.0272413 1.64859 1.66444 0.287229 1.62362 -9.88597 18.7575 5.52824 -10.1583 31.6749 10.176 -0.0 0.0 -0.0 1.2099 12.9679 3.52938 -4.87729 -28.1148 41.4107 1.45914 -35.8577 0.472124 -53.2872 -4.4617 4.84369 -2.01421 25.2647 -1.34125 -0.0 0.0 -0.0 10.9534 26.284 -20.9745 -16.0113 16.2503 -66.1549 0.169619 4.80308 -0.00711374 -18.2068 0.984107 -2.10003 1.96251 -1.01128 -13.6312 0.0 0.0 0.0 -8.38272 0.767876 11.083 8.3864 -0.434967 -1.2116 40.3408 23.7954 -5.16238 -29.1927 0.0 0.0 -0.0 0.0 -0.0 27.5002 24.7549 -5.0832 -52.8128 1.47587 -7.68768 27.8045 -22.9028 3.80532 -31.7496 0.0 0.0 0.0 0.0 0.0 
2807.49103588 704.508 -1565.15324388 -1.552868971 58.5097947436 -0.331560529041 2.12088 0.457631 1.49987 2.12206 0.361275 1.52594 2.1317 0.0908507 1.56548 2.12844 0.33692 1.5315 -8.96805 19.6055 5.52669 -9.16189 33.076 10.1259 -0.0 0.0 -0.0 1.10318 16.2596 3.63978 0.987122 -28.7714 39.4675 2.04565 -45.3747 0.855258 -59.262 -5.19111 5.07761 -3.21336 28.8678 -6.03997 -0.0 0.0 -0.0 11.2866 26.0664 -21.7519 -20.7401 9.97972 -66.4241 0.121968 3.45766 -0.00368129 -19.3382 1.06673 -2.21905 1.07422 -23.7802 -15.8075 0.0 0.0 0.0 -8.17232 3.75927 10.5459 6.31648 -0.311146 -0.918555 42.1087 22.4567 -5.28502 -25.3354 0.0 0.0 -0.0 0.0 -0.0 30.4453 21.5172 -7.22336 -35.2562 0.19287 -5.32286 24.2824 -3.62677 3.25185 -38.68 0.0 0.0 0.0 0.0 0.0 
